<?xml version="1.0" encoding="UTF-8"?> <svg xmlns="http://www.w3.org/2000/svg" id="Layer_1" version="1.1" viewBox="0 0 4000 895.5" preserveAspectRatio="none"><!-- Generator: Adobe Illustrator 29.2.1, SVG Export Plug-In . SVG Version: 2.1.0 Build 116) --><path d="M0,0c62.6-2.7,149.2,1.2,211.8,1.2h318.3s979.3,0,979.3,0l1740.3.7c228.3.2,456.9-3.3,685.1-.9,15.2.2,66.8-7.2,80.2.5,9.6,5.5-17.4,19.2-15,29.7-2,6.6-3.2,10-9.8,13.2-59.8,29.1-90.2,24.7-140.2,81.1-83,93.5-64,190.8-57.6,303.1,1.1,19.6,1.1,54-14.4,68.3-5.7,5.3-10.8,6.8-18.6,6.1-8.8-.9-17.9-7-23.4-13.7-21.3-26.2-3.2-118.3-.4-151.8,5.3-64-8.4-151.4-52.4-201.1-13.9-15.7-31.7-25.9-53-26.6-16.1-.6-31.2,2.8-43.1,14.3-45.1,43.8-9.1,130.2-11.8,185.1-.8,15.6-6.1,48.4-20.6,58.1-4.5,3-7.7,4.5-13.1,3.9-9.1-1.1-15.6-5.7-22.1-11.9-49.4-46.8,18.2-145.2-30.7-206.2-14.2-17.7-33.8-28.6-56.6-30-18.7-1.1-37,4.1-52.8,14-69.8,43.5-40.3,130.3-83,163.2-6.1,4.7-9.9,4.7-17.3,4.2-22.1-11.6-30.5-45.2-44.9-64.8-6.2-8.4-11.1-12.3-21.7-13.8-16.6,3.9-26,17.1-34.5,31.2-16.7,27.6-25.9,60.5-33.1,91.7-30.8,134.9-1.9,234.3,29.1,363.9,12.2,50.9,20.7,99.6-9.9,146.8-10.9,16.9-27.2,31.3-47.4,35.2-17.7,3.4-38.8-1.2-53.4-11.9-76.7-55.8-7.6-238.3,1.6-313.7,3.9-30.7,5.7-61.6,5.5-92.6-.2-31-2.5-61.8-6.7-92.5-7.2-50.2-20.7-111.3-47.7-155-7.2-11.7-14.5-20.4-28.2-23.7-6.6,1.3-9.6.5-12.7,7.2-5.2,11.1-4.7,30.6-5.5,42.7-3.7,52.9-.8,141.3-33.8,184.6-6.2,8.1-16.7,16-27.1,16.6-54,2.9-30.9-214.2-74.1-243.5-5.5-3.7-11.4-4-17.6-2.2-51.5,14.9-46.8,105-71.6,145-6.8,11-16.2,21.1-29.5,23.5-24.2,4.5-47.3-13.4-65.7-26.5-13.9,51.6-10.5,117.6-36.5,164.1-7.5,13.4-19.2,25.7-34.8,29.1-11.7,2.6-23.7-.5-33.6-6.9-51.7-33.4-58.5-202-72-263.9-16.3-75.1-45-149.6-112.7-192.5-68.7-43.6-175.2-51.7-253-33.4-164.1,38.5-211.8,242.7-222.9,387.2-4.9,63.3,8.3,154-28.2,209.4-7.5,11.4-20,25.2-34.6,26.3-9.3.7-17.2-4-23.5-10.3-44.8-44.6-33-150.2-34.2-208.7-1.7-89.8-11.8-214.1-82-279.2-23.1-21.4-73.7-48.8-105.6-46.2-42,3.5-38,86.9-63.9,115.8-8.9,10-19.9,14.2-33.2,14.1-56.5-.3-45.4-79.3-73.2-103.7-3.7-3.2-6-2.1-10.5-2-61,38.8-53.1,171.4-87.3,230.5-7.3,12.7-19,27.8-34.1,31.3-9.8,2.2-18.9-.5-27.2-5.7-41.9-26-50-96.8-60.8-141.4l-1,1.3c-50.2,63.9-38.5,146.7-43,222.7-3.9,66.8-22.4,156.6-75.9,202.5-20.5,17.5-48.6,29.7-75.9,26.5-29.7-3.5-52.5-21.5-70.5-44.2-98.9-124.3-29.5-297.8-107.4-391.1l-2.7-3.1c-18,38-16,90.7-50.2,118.6-10.8,8.8-23.5,12-37.2,10-77.3-11.1-62.7-153.2-104.7-205-59.7-73.7-143.1,53.8-213,42.9-42.8-6.7-70-49-93.9-81.1-60.7-81.7-105.7-105.7-207.2-115-21.3-2-43.1-1.3-64.2-4.8-11.9-2-31.4-5.8-38.2-16.9-2.5-4-1.1-6.1-.4-10.4C7.6,10.8-9.3,4.8,0,0Z"></path></svg> 